<svg id="Calque_1" data-name="Calque 1" xmlns="http://www.w3.org/2000/svg" viewBox="0 0 468 468">
  <defs>
    <style>
      .cls-1 {
        opacity: 0.5;
      }

      .cls-2 {
        fill: none;
      }

      .cls-3 {
        fill: #c1c1c1;
      }
    </style>
  </defs>
  <title>rounded-dash</title>
  <g id="Ellipse_787" data-name="Ellipse 787" class="cls-1">
    <circle class="cls-2" cx="234" cy="234" r="234"/>
    <path class="cls-3" d="M237.7,468a1.5,1.5,0,0,1,0-3l1,0a1.5,1.5,0,0,1,.06,3l-1,0Zm-10-.05h0l-1,0a1.51,1.51,0,0,1-1.46-1.55,1.49,1.49,0,0,1,1.55-1.45l1,0a1.5,1.5,0,0,1,0,3Zm21-.38a1.5,1.5,0,0,1-.09-3l1-.07a1.5,1.5,0,0,1,.21,3l-1,.06Zm-32-.17h-.11l-1-.07a1.5,1.5,0,1,1,.23-3l1,.07a1.5,1.5,0,0,1-.11,3Zm42.92-.77a1.5,1.5,0,0,1-.16-3l1-.11a1.5,1.5,0,1,1,.35,3l-1,.11Zm-53.86-.3h-.18l-.95-.11a1.53,1.53,0,0,1-1.33-1.68,1.49,1.49,0,0,1,1.65-1.31l1,.13a1.5,1.5,0,0,1-.18,3Zm64.76-1.15a1.5,1.5,0,0,1-.23-3l1-.15a1.5,1.5,0,0,1,.48,3l-1,.16Zm-75.64-.43a1.14,1.14,0,0,1-.26,0l-1-.17a1.5,1.5,0,1,1,.51-2.95l1,.17a1.5,1.5,0,0,1-.25,3Zm86.45-1.55a1.5,1.5,0,0,1-.3-3l1-.21a1.5,1.5,0,0,1,.63,2.94l-1,.2A1.63,1.63,0,0,1,281.35,463.17Zm-97.25-.54a1.73,1.73,0,0,1-.32,0l-1-.22a1.5,1.5,0,0,1,.65-2.93l1,.22a1.5,1.5,0,0,1-.32,3Zm108-1.94a1.5,1.5,0,0,1-.37-2.95l1-.25a1.5,1.5,0,1,1,.75,2.9l-1,.25A1.57,1.57,0,0,1,292.07,460.69ZM173.42,460a1.9,1.9,0,0,1-.4,0l-1-.27a1.5,1.5,0,1,1,.79-2.89l1,.26a1.5,1.5,0,0,1-.39,2.95Zm129.23-2.33a1.5,1.5,0,0,1-.45-2.93l1-.3a1.5,1.5,0,1,1,.89,2.86l-1,.3A1.39,1.39,0,0,1,302.65,457.7Zm-139.78-.78a1.48,1.48,0,0,1-.46-.08l-1-.3a1.5,1.5,0,0,1,.92-2.86l1,.31a1.5,1.5,0,0,1,1,1.89A1.52,1.52,0,0,1,162.87,456.92Zm150.21-2.71a1.5,1.5,0,0,1-.51-2.91l.93-.34a1.5,1.5,0,1,1,1,2.81l-.94.35A1.52,1.52,0,0,1,313.08,454.21Zm-160.63-.91a1.37,1.37,0,0,1-.52-.1l-1-.35a1.5,1.5,0,0,1,1.07-2.81l.93.35a1.5,1.5,0,0,1-.53,2.91Zm170.85-3.07a1.48,1.48,0,0,1-1.38-.92,1.5,1.5,0,0,1,.8-2l.91-.38a1.5,1.5,0,1,1,1.17,2.76l-.92.39A1.49,1.49,0,0,1,323.3,450.23Zm-181.07-1a1.44,1.44,0,0,1-.6-.13l-.92-.4a1.5,1.5,0,0,1,1.19-2.75l.92.4a1.5,1.5,0,0,1-.59,2.88Zm191.09-3.41a1.5,1.5,0,0,1-.64-2.86l.89-.42a1.5,1.5,0,0,1,1.3,2.7l-.91.43A1.43,1.43,0,0,1,333.32,445.78Zm-201.11-1.19a1.55,1.55,0,0,1-.66-.15l-.9-.44a1.5,1.5,0,1,1,1.32-2.7l.9.44a1.5,1.5,0,0,1-.66,2.85Zm210.92-3.74a1.5,1.5,0,0,1-.71-2.82l.88-.47a1.5,1.5,0,1,1,1.41,2.64l-.88.48A1.57,1.57,0,0,1,343.13,440.85Zm-220.7-1.32a1.54,1.54,0,0,1-.72-.18l-.89-.49a1.5,1.5,0,0,1,1.46-2.63l.87.48a1.51,1.51,0,0,1,.59,2A1.48,1.48,0,0,1,122.43,439.53Zm230.26-4.07a1.5,1.5,0,0,1-.77-2.79l.86-.51a1.5,1.5,0,0,1,1.54,2.58l-.86.51A1.51,1.51,0,0,1,352.69,435.46ZM112.9,434a1.46,1.46,0,0,1-.78-.22l-.86-.53a1.5,1.5,0,0,1,1.57-2.55l.85.52a1.5,1.5,0,0,1-.78,2.78ZM362,429.63a1.52,1.52,0,0,1-1.25-.67,1.5,1.5,0,0,1,.43-2.08l.82-.55a1.5,1.5,0,1,1,1.67,2.49l-.84.56A1.47,1.47,0,0,1,362,429.63Zm-258.35-1.58a1.54,1.54,0,0,1-.84-.26l-.83-.57a1.5,1.5,0,1,1,1.7-2.47l.82.56a1.5,1.5,0,0,1-.85,2.74ZM371,423.36a1.5,1.5,0,0,1-.88-2.71l.8-.59a1.5,1.5,0,1,1,1.78,2.42l-.81.59A1.48,1.48,0,0,1,371,423.36Zm-276.33-1.7a1.49,1.49,0,0,1-.89-.3l-.81-.61a1.5,1.5,0,0,1,1.81-2.39l.79.6a1.5,1.5,0,0,1,.31,2.1A1.52,1.52,0,0,1,94.68,421.66Zm285.05-5a1.5,1.5,0,0,1-.94-2.67l.77-.62a1.5,1.5,0,0,1,1.89,2.33l-.78.63A1.5,1.5,0,0,1,379.73,416.67ZM86,414.85a1.46,1.46,0,0,1-1-.34l-.78-.65a1.5,1.5,0,1,1,1.92-2.3l.76.63a1.51,1.51,0,0,1,.21,2.11A1.48,1.48,0,0,1,86,414.85Zm302.09-5.27a1.5,1.5,0,0,1-1-2.63l.74-.66a1.5,1.5,0,0,1,2,2.24l-.75.67A1.52,1.52,0,0,1,388.13,409.58ZM77.72,407.65a1.51,1.51,0,0,1-1-.39l-.74-.68a1.5,1.5,0,0,1,2-2.21l.74.67a1.5,1.5,0,0,1-1,2.61Zm318.46-5.56a1.52,1.52,0,0,1-1.08-.45,1.5,1.5,0,0,1,0-2.12l.7-.69A1.5,1.5,0,0,1,398,401l-.73.7A1.48,1.48,0,0,1,396.18,402.09Zm-326.42-2a1.51,1.51,0,0,1-1.06-.44l-.71-.71a1.5,1.5,0,1,1,2.13-2.12l.7.7a1.51,1.51,0,0,1-1.06,2.57Zm334.12-5.83a1.49,1.49,0,0,1-1.1-2.52l.68-.73a1.5,1.5,0,0,1,2.2,2l-.69.73A1.47,1.47,0,0,1,403.88,394.24ZM62.16,392.12a1.5,1.5,0,0,1-1.1-.49l-.68-.75a1.5,1.5,0,1,1,2.22-2l.67.74a1.5,1.5,0,0,1-1.11,2.51Zm349-6.09a1.48,1.48,0,0,1-1-.36,1.49,1.49,0,0,1-.18-2.11l.65-.76a1.5,1.5,0,1,1,2.29,1.93l-.65.77A1.5,1.5,0,0,1,411.2,386ZM55,383.82a1.5,1.5,0,0,1-1.16-.54l-.63-.77a1.5,1.5,0,0,1,2.31-1.91l.63.77A1.49,1.49,0,0,1,55,383.82Zm363.17-6.33a1.51,1.51,0,0,1-1.18-2.42l.61-.79a1.5,1.5,0,1,1,2.38,1.82l-.62.8A1.51,1.51,0,0,1,418.12,377.49Zm-370-2.29a1.48,1.48,0,0,1-1.2-.59l-.61-.81A1.5,1.5,0,0,1,48.74,372l.59.79a1.5,1.5,0,0,1-.29,2.1A1.52,1.52,0,0,1,48.14,375.2Zm376.5-6.58a1.51,1.51,0,0,1-1.23-2.36l.57-.82a1.5,1.5,0,1,1,2.47,1.71l-.58.83A1.48,1.48,0,0,1,424.64,368.62Zm-382.9-2.35a1.51,1.51,0,0,1-1.24-.65l-.57-.83a1.5,1.5,0,1,1,2.49-1.68l.56.82a1.5,1.5,0,0,1-.4,2.08A1.46,1.46,0,0,1,41.74,366.27Zm389-6.82a1.46,1.46,0,0,1-.8-.23,1.5,1.5,0,0,1-.47-2.07l.53-.84a1.5,1.5,0,1,1,2.54,1.59l-.53.85A1.5,1.5,0,0,1,430.74,359.45Zm-395-2.4a1.49,1.49,0,0,1-1.28-.71l-.52-.86a1.5,1.5,0,0,1,2.56-1.56l.52.85a1.5,1.5,0,0,1-.5,2.06A1.46,1.46,0,0,1,35.77,357.05ZM436.39,350a1.47,1.47,0,0,1-.73-.19,1.5,1.5,0,0,1-.57-2.05l.49-.86a1.5,1.5,0,0,1,2-.58,1.52,1.52,0,0,1,.58,2.05l-.5.88A1.51,1.51,0,0,1,436.39,350ZM30.24,347.57a1.48,1.48,0,0,1-1.31-.78l-.48-.88a1.5,1.5,0,1,1,2.63-1.43l.48.86a1.51,1.51,0,0,1-.59,2A1.47,1.47,0,0,1,30.24,347.57ZM441.6,340.3a1.5,1.5,0,0,1-1.34-2.18l.45-.89a1.5,1.5,0,0,1,2.68,1.34l-.45.9A1.5,1.5,0,0,1,441.6,340.3ZM25.18,337.83a1.49,1.49,0,0,1-1.35-.83l-.44-.91a1.5,1.5,0,0,1,2.7-1.31l.43.89a1.5,1.5,0,0,1-.68,2A1.58,1.58,0,0,1,25.18,337.83Zm421.15-7.48a1.49,1.49,0,0,1-1.36-2.11l.4-.91a1.5,1.5,0,0,1,2.75,1.21l-.41.92A1.51,1.51,0,0,1,446.33,330.35ZM20.57,327.87a1.47,1.47,0,0,1-1.37-.9l-.4-.92a1.5,1.5,0,1,1,2.76-1.18l.39.91a1.5,1.5,0,0,1-.78,2A1.57,1.57,0,0,1,20.57,327.87Zm430-7.68a1.51,1.51,0,0,1-1.4-2.05l.36-.93a1.5,1.5,0,1,1,2.8,1.08l-.37.94A1.49,1.49,0,0,1,450.6,320.19ZM16.45,317.71a1.51,1.51,0,0,1-1.4-1l-.35-.94a1.5,1.5,0,1,1,2.81-1.05l.35.93a1.51,1.51,0,0,1-.88,1.94A1.6,1.6,0,0,1,16.45,317.71Zm437.92-7.88a1.61,1.61,0,0,1-.48-.08,1.51,1.51,0,0,1-.95-1.9l.32-1a1.5,1.5,0,0,1,2.85,1l-.32.95A1.51,1.51,0,0,1,454.37,309.83ZM12.81,307.34a1.51,1.51,0,0,1-1.43-1l-.31-1a1.5,1.5,0,0,1,2.86-.91l.31.95a1.52,1.52,0,0,1-1.43,2Zm444.82-8a1.51,1.51,0,0,1-1.44-1.91l.27-1a1.5,1.5,0,1,1,2.89.81l-.27,1A1.51,1.51,0,0,1,457.63,299.32Zm-448-2.52a1.51,1.51,0,0,1-1.45-1.1l-.26-1a1.5,1.5,0,1,1,2.89-.77l.26,1a1.49,1.49,0,0,1-1,1.84A1.31,1.31,0,0,1,9.67,296.8Zm450.72-8.12a2,2,0,0,1-.34,0,1.5,1.5,0,0,1-1.12-1.81l.22-1a1.5,1.5,0,0,1,2.93.67l-.23,1A1.5,1.5,0,0,1,460.39,288.68ZM7,286.13A1.51,1.51,0,0,1,5.56,285l-.21-1a1.5,1.5,0,1,1,2.93-.64l.21,1a1.5,1.5,0,0,1-1.14,1.79A1.87,1.87,0,0,1,7,286.13Zm455.61-8.22-.27,0a1.49,1.49,0,0,1-1.2-1.75l.17-1a1.5,1.5,0,0,1,3,.52l-.18,1A1.51,1.51,0,0,1,462.64,277.91ZM4.9,275.34a1.51,1.51,0,0,1-1.48-1.25l-.17-1a1.5,1.5,0,1,1,3-.49l.17,1a1.51,1.51,0,0,1-1.22,1.74Zm459.48-8.29h-.21a1.5,1.5,0,0,1-1.28-1.69l.13-1a1.5,1.5,0,0,1,3,.39l-.14,1A1.49,1.49,0,0,1,464.38,267.05ZM3.28,264.46a1.49,1.49,0,0,1-1.48-1.31l-.12-1a1.5,1.5,0,1,1,3-.36l.13,1a1.5,1.5,0,0,1-1.31,1.67Zm462.32-8.33h-.13a1.5,1.5,0,0,1-1.37-1.62l.09-1a1.5,1.5,0,0,1,3,.24l-.09,1A1.5,1.5,0,0,1,465.6,256.13ZM2.19,253.52a1.5,1.5,0,0,1-1.5-1.38l-.07-1a1.5,1.5,0,1,1,3-.21l.07,1a1.49,1.49,0,0,1-1.38,1.61Zm464.11-8.37h-.06a1.5,1.5,0,0,1-1.44-1.56l0-1a1.48,1.48,0,0,1,1.55-1.44,1.5,1.5,0,0,1,1.45,1.55l0,1A1.5,1.5,0,0,1,466.3,245.15ZM1.6,242.54a1.51,1.51,0,0,1-1.5-1.46l0-1a1.51,1.51,0,0,1,1.46-1.54h0A1.51,1.51,0,0,1,3.08,240l0,1a1.48,1.48,0,0,1-1.45,1.54Zm464.9-8.38a1.5,1.5,0,0,1-1.5-1.49v-1a1.5,1.5,0,0,1,1.48-1.51h0a1.5,1.5,0,0,1,1.5,1.49v1a1.51,1.51,0,0,1-1.5,1.51Zm-465-2.61h0A1.51,1.51,0,0,1,0,230l0-1a1.46,1.46,0,0,1,1.53-1.47,1.49,1.49,0,0,1,1.47,1.53l0,1A1.5,1.5,0,0,1,1.53,231.55Zm464.65-8.38a1.5,1.5,0,0,1-1.5-1.42l-.05-1a1.5,1.5,0,0,1,1.41-1.58,1.47,1.47,0,0,1,1.58,1.42l.06,1a1.51,1.51,0,0,1-1.42,1.58ZM2,220.56H1.88A1.5,1.5,0,0,1,.48,219l.06-1a1.5,1.5,0,1,1,3,.2l-.06,1A1.5,1.5,0,0,1,2,220.56Zm463.38-8.36a1.48,1.48,0,0,1-1.49-1.35l-.11-1a1.5,1.5,0,0,1,3-.3l.1,1a1.51,1.51,0,0,1-1.34,1.65ZM2.93,209.61H2.76a1.5,1.5,0,0,1-1.32-1.66l.11-1a1.5,1.5,0,0,1,3,.34l-.11,1A1.51,1.51,0,0,1,2.93,209.61ZM464,201.29a1.49,1.49,0,0,1-1.48-1.28l-.15-1a1.5,1.5,0,0,1,3-.45l.15,1a1.5,1.5,0,0,1-1.27,1.7A.82.82,0,0,1,464,201.29ZM4.4,198.71l-.24,0A1.5,1.5,0,0,1,2.91,197l.16-1a1.51,1.51,0,0,1,1.73-1.24A1.49,1.49,0,0,1,6,196.46l-.15,1A1.51,1.51,0,0,1,4.4,198.71Zm457.74-8.25a1.51,1.51,0,0,1-1.47-1.21l-.2-1a1.5,1.5,0,0,1,2.95-.59l.19,1a1.51,1.51,0,0,1-1.18,1.77A1.36,1.36,0,0,1,462.14,190.46ZM6.38,187.89l-.31,0a1.49,1.49,0,0,1-1.16-1.77l.21-1a1.5,1.5,0,0,1,2.93.62l-.2,1A1.5,1.5,0,0,1,6.38,187.89Zm453.39-8.17a1.51,1.51,0,0,1-1.46-1.14l-.24-1a1.5,1.5,0,1,1,2.91-.73l.24,1a1.49,1.49,0,0,1-1.09,1.81A1.56,1.56,0,0,1,459.77,179.72ZM8.88,177.18a1.58,1.58,0,0,1-.38,0,1.51,1.51,0,0,1-1.08-1.83l.25-1a1.52,1.52,0,0,1,1.84-1.07,1.5,1.5,0,0,1,1.07,1.83l-.25,1A1.5,1.5,0,0,1,8.88,177.18Zm448-8.07a1.51,1.51,0,0,1-1.44-1.08l-.28-.95a1.5,1.5,0,0,1,2.87-.87l.29,1a1.5,1.5,0,0,1-1,1.87A1.59,1.59,0,0,1,456.88,169.11Zm-445-2.5a1.76,1.76,0,0,1-.45-.07,1.51,1.51,0,0,1-1-1.88l.31-1a1.5,1.5,0,1,1,2.86.9l-.3,1A1.51,1.51,0,0,1,11.88,166.61Zm441.62-8a1.51,1.51,0,0,1-1.42-1l-.33-.94a1.5,1.5,0,0,1,2.83-1l.33,1a1.49,1.49,0,0,1-.92,1.91A1.41,1.41,0,0,1,453.5,158.65Zm-438.11-2.5a1.52,1.52,0,0,1-.51-.09,1.5,1.5,0,0,1-.9-1.92l.35-.95a1.5,1.5,0,1,1,2.81,1l-.34.93A1.5,1.5,0,0,1,15.39,156.15Zm434.23-7.79a1.49,1.49,0,0,1-1.39-.94l-.38-.92a1.5,1.5,0,0,1,2.78-1.14l.38.93a1.51,1.51,0,0,1-.83,2A1.59,1.59,0,0,1,449.62,148.36ZM19.4,145.88A1.48,1.48,0,0,1,18,143.81l.39-.94A1.5,1.5,0,0,1,21.17,144l-.39.92A1.48,1.48,0,0,1,19.4,145.88Zm425.86-7.59a1.51,1.51,0,0,1-1.36-.88l-.42-.89a1.5,1.5,0,1,1,2.72-1.27l.42.91a1.5,1.5,0,0,1-.73,2A1.56,1.56,0,0,1,445.26,138.29ZM23.89,135.82a1.46,1.46,0,0,1-.64-.15,1.49,1.49,0,0,1-.71-2l.43-.91a1.5,1.5,0,1,1,2.71,1.3l-.43.89A1.51,1.51,0,0,1,23.89,135.82Zm416.54-7.39a1.49,1.49,0,0,1-1.33-.81l-.46-.87a1.5,1.5,0,0,1,2.66-1.4l.47.89a1.49,1.49,0,0,1-1.34,2.19ZM28.85,126a1.51,1.51,0,0,1-1.32-2.21l.48-.89a1.5,1.5,0,1,1,2.64,1.43l-.47.87A1.5,1.5,0,0,1,28.85,126Zm406.29-7.17a1.5,1.5,0,0,1-1.29-.75l-.5-.86a1.49,1.49,0,1,1,2.58-1.51l.51.86a1.51,1.51,0,0,1-1.3,2.26ZM34.28,116.4a1.54,1.54,0,0,1-.77-.21,1.51,1.51,0,0,1-.52-2.06l.52-.86a1.5,1.5,0,1,1,2.57,1.55l-.51.85A1.5,1.5,0,0,1,34.28,116.4Zm395.12-6.94a1.52,1.52,0,0,1-1.26-.69l-.54-.83a1.5,1.5,0,0,1,2.52-1.64l.54.84a1.51,1.51,0,0,1-.44,2.08A1.56,1.56,0,0,1,429.4,109.46ZM40.15,107.09a1.47,1.47,0,0,1-.83-.25,1.5,1.5,0,0,1-.42-2.08l.56-.84A1.5,1.5,0,1,1,42,105.59l-.55.83A1.52,1.52,0,0,1,40.15,107.09Zm383.07-6.72a1.49,1.49,0,0,1-1.22-.62l-.58-.81a1.5,1.5,0,0,1,2.44-1.75l.58.81a1.5,1.5,0,0,1-.35,2.1A1.52,1.52,0,0,1,423.22,100.37ZM46.45,98.06a1.49,1.49,0,0,1-1.21-2.38l.6-.81a1.5,1.5,0,1,1,2.41,1.78l-.59.8A1.49,1.49,0,0,1,46.45,98.06Zm370.17-6.47a1.5,1.5,0,0,1-1.18-.57l-.61-.78a1.5,1.5,0,0,1,2.35-1.86l.62.78a1.51,1.51,0,0,1-.25,2.11A1.46,1.46,0,0,1,416.62,91.59ZM53.17,89.35a1.55,1.55,0,0,1-1-.33A1.51,1.51,0,0,1,52,86.91l.64-.78A1.5,1.5,0,1,1,55,88l-.63.77A1.48,1.48,0,0,1,53.17,89.35Zm356.44-6.22a1.5,1.5,0,0,1-1.13-.52l-.65-.75a1.5,1.5,0,0,1,2.25-2l.67.76a1.51,1.51,0,0,1-1.14,2.49ZM60.29,81a1.47,1.47,0,0,1-1-.38,1.49,1.49,0,0,1-.12-2.11l.67-.75a1.5,1.5,0,1,1,2.23,2l-.66.74A1.51,1.51,0,0,1,60.29,81Zm341.92-6a1.49,1.49,0,0,1-1.08-.47l-.69-.71a1.5,1.5,0,1,1,2.16-2.08l.7.72A1.51,1.51,0,0,1,402.21,75ZM67.79,72.92a1.49,1.49,0,0,1-1.07-2.54l.71-.72a1.5,1.5,0,1,1,2.13,2.11l-.7.7A1.48,1.48,0,0,1,67.79,72.92Zm326.64-5.7a1.47,1.47,0,0,1-1-.41l-.72-.68A1.5,1.5,0,1,1,394.74,64l.73.69a1.5,1.5,0,0,1,0,2.12A1.48,1.48,0,0,1,394.43,67.22Zm-318.77-2a1.47,1.47,0,0,1-1.09-.48,1.49,1.49,0,0,1,.07-2.12l.74-.69a1.5,1.5,0,1,1,2,2.21l-.72.67A1.51,1.51,0,0,1,75.66,65.25ZM386.3,59.82a1.5,1.5,0,0,1-1-.36l-.75-.65a1.5,1.5,0,0,1,1.95-2.28l.76.66a1.49,1.49,0,0,1,.15,2.12A1.48,1.48,0,0,1,386.3,59.82ZM83.89,58a1.5,1.5,0,0,1-1-2.65l.76-.64A1.5,1.5,0,1,1,85.61,57l-.76.63A1.47,1.47,0,0,1,83.89,58Zm293.93-5.14a1.45,1.45,0,0,1-.92-.32l-.79-.62A1.5,1.5,0,1,1,378,49.51l.79.62a1.5,1.5,0,0,1-.93,2.68ZM92.44,51.05a1.48,1.48,0,0,1-1.19-.59,1.5,1.5,0,0,1,.27-2.1l.8-.61a1.5,1.5,0,0,1,1.82,2.39l-.79.6A1.47,1.47,0,0,1,92.44,51.05ZM369,46.2a1.5,1.5,0,0,1-.87-.28l-.81-.57a1.5,1.5,0,1,1,1.73-2.45l.82.58a1.5,1.5,0,0,1,.36,2.09A1.52,1.52,0,0,1,369,46.2ZM101.31,44.56a1.5,1.5,0,0,1-.86-2.73l.82-.57A1.5,1.5,0,0,1,103,43.73l-.82.56A1.5,1.5,0,0,1,101.31,44.56ZM359.92,40a1.56,1.56,0,0,1-.82-.24l-.83-.54a1.5,1.5,0,1,1,1.61-2.53l.85.55a1.5,1.5,0,0,1-.81,2.76ZM110.46,38.5a1.52,1.52,0,0,1-1.27-.7,1.5,1.5,0,0,1,.47-2.07l.86-.53a1.5,1.5,0,1,1,1.58,2.54l-.84.53A1.46,1.46,0,0,1,110.46,38.5Zm240.07-4.23a1.47,1.47,0,0,1-.75-.21l-.86-.49a1.5,1.5,0,1,1,1.49-2.6l.87.5a1.5,1.5,0,0,1-.75,2.8ZM119.9,32.88a1.5,1.5,0,0,1-.74-2.81l.87-.49a1.5,1.5,0,0,1,1.47,2.62l-.87.49A1.47,1.47,0,0,1,119.9,32.88Zm221-3.91a1.53,1.53,0,0,1-.69-.17l-.89-.46a1.5,1.5,0,0,1-.65-2,1.52,1.52,0,0,1,2-.65l.9.46a1.51,1.51,0,0,1-.69,2.84Zm-211.3-1.26a1.5,1.5,0,0,1-.68-2.84l.9-.45a1.5,1.5,0,1,1,1.33,2.69l-.88.44A1.44,1.44,0,0,1,129.58,27.71ZM331,24.13a1.44,1.44,0,0,1-.63-.14l-.9-.41a1.5,1.5,0,1,1,1.24-2.73l.92.42a1.5,1.5,0,0,1-.63,2.86ZM139.49,23a1.5,1.5,0,0,1-.61-2.87l.92-.4A1.5,1.5,0,0,1,141,22.48l-.91.4A1.46,1.46,0,0,1,139.49,23Zm181.37-3.24a1.55,1.55,0,0,1-.56-.11l-.93-.37a1.5,1.5,0,1,1,1.11-2.79l.94.38a1.5,1.5,0,0,1,.83,1.95A1.51,1.51,0,0,1,320.86,19.77Zm-171.25-1a1.5,1.5,0,0,1-.54-2.9l.94-.36a1.5,1.5,0,0,1,1.07,2.8l-.92.36A1.52,1.52,0,0,1,149.61,18.79Zm160.93-2.9a1.4,1.4,0,0,1-.49-.08l-.95-.33a1.5,1.5,0,1,1,1-2.83L311,13a1.5,1.5,0,0,1-.49,2.92ZM160,15a1.5,1.5,0,0,1-.48-2.92l1-.32a1.5,1.5,0,0,1,.94,2.85l-.94.31A1.34,1.34,0,0,1,160,15Zm140.12-2.52a1.59,1.59,0,0,1-.43-.06l-.95-.28a1.5,1.5,0,0,1,.84-2.88l1,.28a1.5,1.5,0,0,1-.42,2.94Zm-129.62-.73A1.5,1.5,0,0,1,170,8.85l1-.28a1.51,1.51,0,0,1,.81,2.9l-1,.26A1.4,1.4,0,0,1,170.45,11.79Zm119-2.14a1.47,1.47,0,0,1-.36,0l-1-.23a1.5,1.5,0,0,1,.7-2.92l1,.24a1.5,1.5,0,0,1-.36,3ZM181.1,9a1.5,1.5,0,0,1-.34-3l1-.22a1.5,1.5,0,1,1,.67,2.92l-1,.23A2,2,0,0,1,181.1,9ZM278.71,7.3l-.29,0-1-.19A1.5,1.5,0,1,1,278,4.13l1,.19a1.5,1.5,0,0,1-.29,3Zm-86.84-.49a1.5,1.5,0,0,1-.27-3l1-.18a1.5,1.5,0,0,1,.53,3l-1,.17A1.24,1.24,0,0,1,191.87,6.81Zm76-1.36-.22,0-1-.14a1.5,1.5,0,0,1,.42-3l1,.14a1.5,1.5,0,0,1-.22,3Zm-65.15-.36a1.5,1.5,0,0,1-.19-3l1-.13a1.5,1.5,0,1,1,.39,3l-1,.13Zm54.24-1h-.15l-1-.09a1.5,1.5,0,0,1,.28-3l1,.1a1.5,1.5,0,0,1-.14,3Zm-43.31-.24a1.5,1.5,0,0,1-.12-3l1-.08a1.49,1.49,0,0,1,1.62,1.37,1.51,1.51,0,0,1-1.37,1.62l-1,.08ZM246,3.3h-.08l-1,0a1.5,1.5,0,0,1-1.43-1.56A1.48,1.48,0,0,1,245.06.26l1,0a1.5,1.5,0,0,1-.07,3Zm-21.36-.11a1.5,1.5,0,0,1-.06-3l1,0a1.48,1.48,0,0,1,1.55,1.44,1.5,1.5,0,0,1-1.44,1.56l-1,0ZM235,3h-1a1.5,1.5,0,0,1,0-3h1a1.51,1.51,0,0,1,1.49,1.51A1.5,1.5,0,0,1,235,3Z"/>
  </g>
</svg>
