<?xml version="1.0" encoding="utf-8"?>
<!-- Generator: Adobe Illustrator 18.1.1, SVG Export Plug-In . SVG Version: 6.00 Build 0)  -->
<svg version="1.1" id="Layer_1" xmlns="http://www.w3.org/2000/svg" xmlns:xlink="http://www.w3.org/1999/xlink" x="0px" y="0px"
	 viewBox="0 0 28.4 34.1" enable-background="new 0 0 28.4 34.1" xml:space="preserve">
<g>
	<linearGradient id="SVGID_1_" gradientUnits="userSpaceOnUse" x1="5.4807" y1="13.4633" x2="5.4807" y2="6.0103">
		<stop  offset="0" style="stop-color:#DC9E2D"/>
		<stop  offset="0.5" style="stop-color:#FFC832"/>
	</linearGradient>
	<path fill="url(#SVGID_1_)" d="M8.7,18.7c0,0,0.1-0.1,0.1-0.2C9,18.4,9.1,18.2,9,18c0-0.3-0.2-0.6-0.4-0.8
		c-0.1-0.1-0.3-0.3-0.4-0.4c0,0-0.1-0.1-0.1-0.1c0,0-0.1-0.1-0.1-0.1c-0.1-0.1-0.2-0.1-0.3-0.2C6.9,15.6,6,14.9,5.2,14
		c-0.4-0.5-0.9-0.9-1.3-1.4c-0.4-0.5-0.8-1.1-1.1-1.7C2.4,10.3,2.2,9.7,2,9C1.9,8.7,1.8,8.3,1.8,8c0-0.3-0.1-0.7,0-1
		c0-0.7,0.2-1.3,0.5-1.9c0.2-0.3,0.4-0.5,0.7-0.7c0.3-0.2,0.6-0.3,0.9-0.3c0.3,0,0.6,0.1,0.8,0.2C4.8,4.5,5,4.6,5.2,4.7
		C5.3,4.9,5.4,5,5.6,5.1c0.1,0.1,0.2,0.2,0.3,0.3c0.2,0.1,0.4,0.2,0.6,0.2c0.1,0,0.1,0,0.2,0c0,0,0.1,0,0.1,0s0,0-0.1,0
		c0,0-0.1,0-0.2,0.1c-0.1,0-0.4,0.1-0.7,0C5.7,5.5,5.5,5.4,5.4,5.3C5.2,5.2,5.1,5.1,4.9,5C4.6,4.8,4.2,4.6,3.9,4.7
		C3.7,4.7,3.5,4.8,3.3,5C3.1,5.1,3,5.3,2.9,5.5C2.7,5.9,2.6,6.5,2.6,7c0,0.6,0.1,1.2,0.3,1.7C3,9.3,3.3,9.9,3.6,10.4
		c0.3,0.5,0.7,1.1,1,1.6c0.4,0.5,0.8,1,1.1,1.4c0.8,0.9,1.5,1.7,2.2,2.4C8.1,16,8.2,16,8.2,16.1c0,0,0.1,0.1,0.1,0.1l0,0l0,0l0,0
		l0,0l0.1,0.1c0.2,0.2,0.3,0.4,0.4,0.5c0.2,0.4,0.3,0.7,0.3,1c0,0.3-0.2,0.5-0.3,0.6C8.9,18.7,8.8,18.7,8.7,18.7
		C8.8,18.7,8.7,18.7,8.7,18.7z"/>
	<linearGradient id="SVGID_2_" gradientUnits="userSpaceOnUse" x1="5.5052" y1="10.6939" x2="22.7702" y2="10.6939">
		<stop  offset="0" style="stop-color:#DC9E2D"/>
		<stop  offset="0.5" style="stop-color:#FFC832"/>
	</linearGradient>
	<path fill="url(#SVGID_2_)" d="M19.2,17.4c0,0,2.5-3.3,3-7.7c0,0,0.5-1.9,0.6-6.5c0-0.4,0-0.5-0.2-0.6c-0.8-0.8-4.6-1.1-8.6-1.1
		c-2.7,0.1-6.4,0.2-8.3,1.1C5.5,2.7,5.5,2.8,5.5,3.2c0.1,4.6,0.6,6.5,0.6,6.5c0.4,4.4,3,7.7,3,7.7c1,1.4,2.2,2.1,2.6,2.4
		c1.4,0.3,3.3,0.3,4.7,0.1C16.5,19.8,18,19.1,19.2,17.4z"/>
	<linearGradient id="SVGID_3_" gradientUnits="userSpaceOnUse" x1="22.8693" y1="13.6948" x2="22.8693" y2="6.2419">
		<stop  offset="0" style="stop-color:#DC9E2D"/>
		<stop  offset="0.5" style="stop-color:#FFC832"/>
	</linearGradient>
	<path fill="url(#SVGID_3_)" d="M19.6,18.7C19.6,18.7,19.6,18.7,19.6,18.7c-0.1-0.1-0.1-0.1-0.2-0.1c-0.1-0.1-0.3-0.3-0.3-0.6
		c0-0.3,0.1-0.7,0.3-1c0.1-0.2,0.2-0.4,0.4-0.5l0.1-0.1l0,0l0,0l0,0l0,0c0,0,0.1-0.1,0.1-0.1c0.1-0.1,0.2-0.2,0.2-0.3
		c0.7-0.7,1.4-1.5,2.2-2.4c0.4-0.5,0.8-0.9,1.1-1.4c0.4-0.5,0.7-1,1-1.6c0.3-0.5,0.6-1.1,0.7-1.7c0.2-0.6,0.3-1.2,0.3-1.7
		c0-0.6-0.1-1.1-0.3-1.5C25.4,5.3,25.2,5.1,25,5c-0.2-0.1-0.4-0.2-0.5-0.3c-0.4-0.1-0.8,0.1-1.1,0.3c-0.2,0.1-0.3,0.2-0.4,0.3
		c-0.1,0.1-0.3,0.2-0.4,0.3c-0.3,0.1-0.5,0.1-0.7,0c-0.1,0-0.1,0-0.2-0.1c0,0-0.1,0-0.1,0s0,0,0.1,0c0,0,0.1,0,0.2,0
		c0.1,0,0.4,0,0.6-0.2c0.1-0.1,0.2-0.2,0.3-0.3C22.9,5,23,4.9,23.2,4.7c0.2-0.2,0.3-0.3,0.6-0.4c0.2-0.1,0.5-0.2,0.8-0.2
		c0.3,0,0.6,0.1,0.9,0.3c0.3,0.2,0.5,0.4,0.7,0.7c0.3,0.5,0.5,1.2,0.5,1.9c0,0.3,0,0.7,0,1c0,0.3-0.1,0.7-0.2,1
		c-0.2,0.7-0.5,1.3-0.8,1.9c-0.3,0.6-0.7,1.1-1.1,1.7c-0.4,0.5-0.8,1-1.3,1.4c-0.9,0.9-1.7,1.7-2.5,2.3c-0.1,0.1-0.2,0.2-0.3,0.2
		c0,0-0.1,0.1-0.1,0.1c0,0-0.1,0.1-0.1,0.1c-0.2,0.1-0.3,0.3-0.4,0.4c-0.2,0.3-0.4,0.6-0.4,0.8c0,0.3,0,0.5,0.1,0.6
		C19.5,18.7,19.6,18.7,19.6,18.7z"/>
	<linearGradient id="SVGID_4_" gradientUnits="userSpaceOnUse" x1="14.2768" y1="1.3054" x2="14.2768" y2="3.7124">
		<stop  offset="9.852217e-003" style="stop-color:#9E4D1A"/>
		<stop  offset="7.881773e-002" style="stop-color:#955920"/>
		<stop  offset="1" style="stop-color:#D3882D"/>
	</linearGradient>
	<path fill="url(#SVGID_4_)" d="M22.1,2.7c0-0.6-3.5-1.1-7.7-1.1s-8,0.5-8,1.1s3.7,1.1,8,1.1S22.1,3.4,22.1,2.7z"/>
	<linearGradient id="SVGID_5_" gradientUnits="userSpaceOnUse" x1="9.9775" y1="18.1695" x2="9.9775" y2="4.9837">
		<stop  offset="0" style="stop-color:#FFFFFF;stop-opacity:0.7"/>
		<stop  offset="1" style="stop-color:#EDB32F"/>
	</linearGradient>
	<path fill="url(#SVGID_5_)" d="M7.9,11.7c1.1,5.6,4.7,7,4.7,7c-1.2-2.6-1.8-5.1-1.8-5.1c-0.7-5.2-0.1-8.8,0-9.3
		C9.4,4.2,8.3,4,7.4,3.8C7.3,8.4,7.9,11.7,7.9,11.7z"/>
	<g opacity="0.23">
		<path fill="#9E4D1A" d="M5.5,3.1c0,0,0.3,0.1,0.7,0.2c0.5,0.1,1.1,0.2,1.9,0.3C9,3.7,9.9,3.7,11,3.8c1,0,2.1,0.1,3.2,0.1
			c1.1,0,2.2,0,3.2,0c1,0,2-0.1,2.8-0.1c0.4-0.1,0.8-0.1,1.1-0.1c0.3-0.1,0.6-0.1,0.8-0.2c0.2-0.1,0.4-0.1,0.5-0.2
			c0.1-0.1,0.2-0.1,0.2-0.1s-0.2,0.2-0.6,0.5c-0.2,0.1-0.5,0.2-0.8,0.4c-0.3,0.1-0.7,0.2-1.1,0.3c-1.6,0.4-3.9,0.6-6.1,0.5
			c-1.1,0-2.2-0.1-3.2-0.2c-1-0.1-2-0.2-2.8-0.5C7.3,3.9,6.6,3.6,6.2,3.4C5.7,3.2,5.5,3.1,5.5,3.1z"/>
	</g>
	<linearGradient id="SVGID_6_" gradientUnits="userSpaceOnUse" x1="11.817" y1="23.0723" x2="16.5416" y2="23.0723">
		<stop  offset="0" style="stop-color:#DC9E2D"/>
		<stop  offset="2.572912e-002" style="stop-color:#DFA22D"/>
		<stop  offset="0.1978" style="stop-color:#EFB630"/>
		<stop  offset="0.3597" style="stop-color:#FAC332"/>
		<stop  offset="0.5" style="stop-color:#FFC832"/>
		<stop  offset="0.6386" style="stop-color:#F8C132"/>
		<stop  offset="0.8317" style="stop-color:#EBB12F"/>
		<stop  offset="1" style="stop-color:#DC9E2D"/>
	</linearGradient>
	<path fill="url(#SVGID_6_)" d="M16.2,21.9c0,0-0.3-0.4-0.4-0.8c0-0.1,0-0.3,0.1-0.4c0,0,0.1,0,0.1-0.1c-0.6,0.1-1.2,0.1-1.8,0.1
		c-0.7,0-1.4,0-2-0.1c0.1,0.1,0.2,0.1,0.2,0.1c0.2,0.6-0.3,1.2-0.3,1.2c-1.4,1.6-0.7,2.2,0.2,3c0.3,0.3,0.4,0.5,0.4,0.7
		c1,0.1,2.1,0.1,3,0c0-0.2,0.1-0.4,0.4-0.7C16.9,24,17.6,23.4,16.2,21.9z"/>
	<path opacity="0.23" fill="#9E4D1A" d="M14.3,20.8c0.1,0.1,0.1,0.1,0.2,0.2c0.1,0.1,0.2,0.1,0.3,0.2c0.1,0,0.3,0.1,0.4,0.1
		c0.2,0,0.5,0,0.7-0.1c0-0.1,0-0.3,0.1-0.4c0,0,0.1,0,0.1-0.1C15.5,20.6,14.8,20.7,14.3,20.8C14.2,20.7,14.2,20.7,14.3,20.8
		C14.2,20.7,14.2,20.7,14.3,20.8z"/>
	<linearGradient id="SVGID_7_" gradientUnits="userSpaceOnUse" x1="11.698" y1="20.243" x2="16.5544" y2="20.243">
		<stop  offset="0" style="stop-color:#EEC223"/>
		<stop  offset="0.798" style="stop-color:#F2C63A"/>
		<stop  offset="1" style="stop-color:#C8A634"/>
	</linearGradient>
	<path fill="url(#SVGID_7_)" d="M11.7,19.7c-0.1,0.4,0.4,0.8,0.7,0.9c1.2,0.2,2.3,0.2,3.5,0c0.2-0.1,0.8-0.5,0.6-0.9
		C15.4,20,12.8,19.9,11.7,19.7z"/>
	<linearGradient id="SVGID_8_" gradientUnits="userSpaceOnUse" x1="9.1123" y1="29.374" x2="19.2432" y2="29.374">
		<stop  offset="0" style="stop-color:#DC9E2D"/>
		<stop  offset="2.572912e-002" style="stop-color:#DFA22D"/>
		<stop  offset="0.1978" style="stop-color:#EFB630"/>
		<stop  offset="0.3597" style="stop-color:#FAC332"/>
		<stop  offset="0.5" style="stop-color:#FFC832"/>
		<stop  offset="0.6386" style="stop-color:#F8C132"/>
		<stop  offset="0.8317" style="stop-color:#EBB12F"/>
		<stop  offset="1" style="stop-color:#DC9E2D"/>
	</linearGradient>
	<path fill="url(#SVGID_8_)" d="M20.8,29.9c-0.1-0.4-0.4-0.5-0.6-0.6c-1.1-0.7-1.4-0.8-2.4-1.1c0,0,0.1-0.6-0.2-0.9
		C17.5,27,17.3,27.1,17,27c-0.1,0-0.6-0.2-1-0.6c-0.1-0.1-0.2-0.2-0.2-0.3c-0.4,0-0.8,0-1.3,0.1c-0.7,0-1.4,0-2-0.1
		c-0.3,0.5-1,0.9-1.2,0.9c-0.4,0.1-0.5,0.1-0.7,0.2c-0.3,0.3-0.2,0.9-0.2,0.9c-1,0.3-1.1,0.2-2.5,1.1c-0.4,0.3-0.5,0.3-0.5,0.6
		c0,0.2,0.1,0.6,0.1,0.8c0,0.2,0,0.3,0.1,0.5c2.9,2,10,2.2,12.9,0c0.2-0.2,0.2-0.3,0.2-0.5C20.9,30.4,20.9,30.2,20.8,29.9z"/>
	<path opacity="0.23" fill="#9E4D1A" d="M15,26.4c0.1,0,0.3,0.1,0.4,0.1c0.2,0,0.4,0,0.6-0.1c-0.1-0.1-0.2-0.2-0.2-0.3
		c-0.4,0-0.8,0-1.3,0.1c0.1,0,0.1,0.1,0.2,0.2C14.8,26.3,14.9,26.4,15,26.4z"/>
	<linearGradient id="SVGID_9_" gradientUnits="userSpaceOnUse" x1="12.5001" y1="25.8182" x2="15.7813" y2="25.8182">
		<stop  offset="0" style="stop-color:#EEC223"/>
		<stop  offset="0.6601" style="stop-color:#F2C63A"/>
		<stop  offset="1" style="stop-color:#A47E28"/>
	</linearGradient>
	<path fill="url(#SVGID_9_)" d="M15.8,26c0-0.1-0.1-0.1-0.1-0.2c0-0.1,0-0.2,0-0.3c-1,0.1-2,0.1-3,0c0,0.1,0,0.2,0,0.3
		c0,0.1,0,0.1-0.1,0.2C13.5,26.1,14.7,26.1,15.8,26z"/>
	<path fill="#FFC21F" d="M14.4,32.6"/>
	<linearGradient id="SVGID_10_" gradientUnits="userSpaceOnUse" x1="10.4343" y1="28.0314" x2="17.8442" y2="28.0314">
		<stop  offset="0" style="stop-color:#A36012"/>
		<stop  offset="7.835180e-003" style="stop-color:#A46213"/>
		<stop  offset="7.263410e-002" style="stop-color:#B07512"/>
		<stop  offset="0.1446" style="stop-color:#BA8511"/>
		<stop  offset="0.2265" style="stop-color:#C1910E"/>
		<stop  offset="0.327" style="stop-color:#C6980C"/>
		<stop  offset="0.5" style="stop-color:#C79A0B"/>
		<stop  offset="0.6901" style="stop-color:#C6980C"/>
		<stop  offset="0.7871" style="stop-color:#C2920E"/>
		<stop  offset="0.863" style="stop-color:#BB8611"/>
		<stop  offset="0.928" style="stop-color:#B17712"/>
		<stop  offset="0.9854" style="stop-color:#A66513"/>
		<stop  offset="1" style="stop-color:#A36012"/>
	</linearGradient>
	<path fill="url(#SVGID_10_)" d="M17.8,27.4c-1.2,0.3-4.7,0.7-7.3,0c0,0-0.1,0.3-0.1,0.8c1.6,0.7,5.8,0.8,7.4,0
		C17.9,27.7,17.8,27.4,17.8,27.4z"/>
	<path opacity="0.86" fill="#FFFFFF" d="M11.5,31.1c0,0,0.7-1.3,0.7-2.4c0,0-0.5,0-1-0.2c-0.1,0.1-1.1,1.6-2,2
		C9.1,30.5,10,31,11.5,31.1z"/>
	<path opacity="0.42" fill="#FFFFFF" d="M12.8,27.6c0.1-0.1,0.3-0.3,0.5-1.4h-0.5c0,0-0.6,1-1.1,1.1C11.7,27.6,12.5,27.8,12.8,27.6z
		"/>
	<linearGradient id="SVGID_11_" gradientUnits="userSpaceOnUse" x1="7.4402" y1="31.2893" x2="20.912" y2="31.2893">
		<stop  offset="0" style="stop-color:#A36012"/>
		<stop  offset="7.835180e-003" style="stop-color:#A46213"/>
		<stop  offset="7.263410e-002" style="stop-color:#B07512"/>
		<stop  offset="0.1446" style="stop-color:#BA8511"/>
		<stop  offset="0.2265" style="stop-color:#C1910E"/>
		<stop  offset="0.327" style="stop-color:#C6980C"/>
		<stop  offset="0.5" style="stop-color:#C79A0B"/>
		<stop  offset="0.6901" style="stop-color:#C6980C"/>
		<stop  offset="0.7871" style="stop-color:#C2920E"/>
		<stop  offset="0.863" style="stop-color:#BB8611"/>
		<stop  offset="0.928" style="stop-color:#B17712"/>
		<stop  offset="0.9854" style="stop-color:#A66513"/>
		<stop  offset="1" style="stop-color:#A36012"/>
	</linearGradient>
	<path fill="url(#SVGID_11_)" d="M20.8,29.9c-4.1,1.7-8.8,2-13.3,0c0,0-0.2,0.9,0.2,1.3c3.1,2,10,2.2,12.9,0
		C21.1,30.8,20.9,30.2,20.8,29.9z"/>
	<path opacity="0.86" fill="#FFFFFF" d="M13.4,24.8v-2.4c0,0,0-0.4-0.6-0.3c0,0-0.6,0.1-0.5,1.2C12.3,23.2,12.6,24.4,13.4,24.8z"/>
</g>
</svg>
