<?xml version="1.0" encoding="utf-8"?>
<!-- Generator: Adobe Illustrator 18.1.1, SVG Export Plug-In . SVG Version: 6.00 Build 0)  -->
<svg version="1.1" id="Layer_1" xmlns="http://www.w3.org/2000/svg" xmlns:xlink="http://www.w3.org/1999/xlink" x="0px" y="0px"
	 viewBox="0 0 28.4 34.1" enable-background="new 0 0 28.4 34.1" xml:space="preserve">
<g>
	<linearGradient id="SVGID_1_" gradientUnits="userSpaceOnUse" x1="23.025" y1="8.5957" x2="23.025" y2="16.1221">
		<stop  offset="0.5" style="stop-color:#A65D0C"/>
		<stop  offset="0.696" style="stop-color:#A45B0D"/>
		<stop  offset="0.7959" style="stop-color:#9E570E"/>
		<stop  offset="0.8741" style="stop-color:#935110"/>
		<stop  offset="0.9407" style="stop-color:#844712"/>
		<stop  offset="1" style="stop-color:#723B12"/>
	</linearGradient>
	<path fill="url(#SVGID_1_)" d="M19.7,18.7C19.7,18.7,19.7,18.7,19.7,18.7c-0.1-0.1-0.1-0.1-0.2-0.1c-0.1-0.1-0.3-0.3-0.3-0.6
		c0-0.3,0.1-0.7,0.3-1.1c0.1-0.2,0.2-0.4,0.4-0.5l0.1-0.1l0,0l0,0l0,0l0,0c0,0,0.1-0.1,0.1-0.1c0.1-0.1,0.2-0.2,0.3-0.3
		c0.7-0.7,1.5-1.5,2.2-2.5c0.4-0.5,0.8-1,1.2-1.5c0.4-0.5,0.7-1,1-1.6c0.3-0.5,0.6-1.1,0.7-1.7C25.8,8,25.9,7.4,26,6.9
		c0-0.6-0.1-1.1-0.3-1.5c-0.1-0.2-0.3-0.4-0.4-0.5c-0.2-0.1-0.4-0.2-0.5-0.3c-0.4-0.1-0.8,0.1-1.1,0.3c-0.2,0.1-0.3,0.2-0.4,0.3
		c-0.1,0.1-0.3,0.2-0.4,0.3c-0.3,0.1-0.5,0.1-0.7,0c-0.1,0-0.1,0-0.2-0.1c0,0-0.1,0-0.1,0s0,0,0.1,0c0,0,0.1,0,0.2,0
		c0.1,0,0.4,0,0.6-0.2c0.1-0.1,0.2-0.2,0.3-0.3c0.1-0.1,0.2-0.3,0.4-0.4c0.2-0.2,0.3-0.3,0.6-0.4C24.1,4.1,24.4,4,24.7,4
		c0.3,0,0.6,0.1,0.9,0.3c0.3,0.2,0.5,0.4,0.7,0.7c0.4,0.5,0.5,1.2,0.5,1.9c0,0.3,0,0.7,0,1c0,0.3-0.1,0.7-0.2,1
		c-0.2,0.7-0.5,1.3-0.8,1.9c-0.3,0.6-0.7,1.1-1.1,1.7c-0.4,0.5-0.8,1-1.3,1.5c-0.9,0.9-1.7,1.7-2.5,2.3c-0.1,0.1-0.2,0.2-0.3,0.2
		c0,0-0.1,0.1-0.1,0.1c0,0-0.1,0.1-0.1,0.1c-0.2,0.1-0.3,0.3-0.4,0.4c-0.2,0.3-0.4,0.6-0.4,0.8c0,0.3,0.1,0.5,0.1,0.6
		C19.7,18.7,19.7,18.7,19.7,18.7z"/>
	<linearGradient id="SVGID_2_" gradientUnits="userSpaceOnUse" x1="5.4649" y1="8.5177" x2="5.4649" y2="16.0442">
		<stop  offset="0.5" style="stop-color:#A65D0C"/>
		<stop  offset="0.696" style="stop-color:#A45B0D"/>
		<stop  offset="0.7959" style="stop-color:#9E570E"/>
		<stop  offset="0.8741" style="stop-color:#935110"/>
		<stop  offset="0.9407" style="stop-color:#844712"/>
		<stop  offset="1" style="stop-color:#723B12"/>
	</linearGradient>
	<path fill="url(#SVGID_2_)" d="M8.8,18.7c0,0,0.1-0.1,0.1-0.2C9,18.4,9.1,18.2,9,17.9c0-0.3-0.2-0.6-0.4-0.8
		c-0.1-0.1-0.3-0.3-0.4-0.4c0,0-0.1-0.1-0.1-0.1c0,0-0.1-0.1-0.1-0.1c-0.1-0.1-0.2-0.1-0.3-0.2c-0.8-0.6-1.6-1.4-2.5-2.3
		c-0.4-0.5-0.9-0.9-1.3-1.5c-0.4-0.5-0.8-1.1-1.1-1.7c-0.3-0.6-0.6-1.2-0.8-1.9c-0.1-0.3-0.1-0.7-0.2-1c0-0.3-0.1-0.7,0-1
		c0-0.7,0.2-1.3,0.5-1.9c0.2-0.3,0.4-0.5,0.7-0.7C3.2,4.1,3.5,4,3.8,4c0.3,0,0.6,0.1,0.8,0.2C4.8,4.3,5,4.4,5.1,4.6
		C5.3,4.7,5.4,4.9,5.5,5c0.1,0.1,0.2,0.2,0.3,0.3c0.2,0.1,0.5,0.2,0.6,0.2c0.1,0,0.1,0,0.2,0c0,0,0.1,0,0.1,0s0,0-0.1,0
		c0,0-0.1,0-0.2,0.1c-0.1,0-0.4,0.1-0.7,0C5.7,5.4,5.5,5.3,5.4,5.2C5.2,5.1,5.1,5,4.9,4.9C4.6,4.6,4.2,4.5,3.8,4.5
		c-0.2,0-0.4,0.1-0.5,0.3C3.1,5,3,5.1,2.9,5.3c-0.2,0.4-0.3,1-0.3,1.5c0,0.6,0.1,1.2,0.3,1.8C3,9.2,3.2,9.8,3.5,10.3
		c0.3,0.5,0.7,1.1,1,1.6c0.4,0.5,0.8,1,1.2,1.5c0.8,0.9,1.6,1.8,2.2,2.5c0.1,0.1,0.2,0.2,0.3,0.3c0,0,0.1,0.1,0.1,0.1l0,0l0,0l0,0
		l0,0l0.1,0.1c0.2,0.2,0.3,0.4,0.4,0.5c0.2,0.4,0.3,0.7,0.3,1.1c0,0.3-0.2,0.5-0.3,0.6C8.9,18.6,8.8,18.7,8.8,18.7
		C8.8,18.7,8.8,18.7,8.8,18.7z"/>
	<linearGradient id="SVGID_3_" gradientUnits="userSpaceOnUse" x1="5.4897" y1="10.593" x2="22.9249" y2="10.593">
		<stop  offset="0" style="stop-color:#9D5121"/>
		<stop  offset="0.2087" style="stop-color:#BA6623"/>
		<stop  offset="0.5" style="stop-color:#F7901E"/>
		<stop  offset="0.612" style="stop-color:#E88720"/>
		<stop  offset="0.773" style="stop-color:#CD7322"/>
		<stop  offset="0.9628" style="stop-color:#A55722"/>
		<stop  offset="1" style="stop-color:#9D5121"/>
	</linearGradient>
	<path fill="url(#SVGID_3_)" d="M19.3,17.3c0,0,2.6-3.4,3-7.8c0,0,0.5-2,0.6-6.6c0-0.4,0-0.5-0.2-0.6c-0.8-0.8-4.7-1.1-8.7-1.1
		c-2.8,0.1-6.4,0.2-8.4,1.1C5.5,2.5,5.5,2.6,5.5,3c0.1,4.6,0.6,6.6,0.6,6.6c0.4,4.4,3,7.8,3,7.8c1,1.4,2.2,2.2,2.6,2.4
		c1.4,0.3,3.3,0.3,4.7,0.1C16.6,19.8,18.1,19,19.3,17.3z"/>
	<linearGradient id="SVGID_4_" gradientUnits="userSpaceOnUse" x1="14.3478" y1="1.112" x2="14.3478" y2="3.5427">
		<stop  offset="9.852217e-003" style="stop-color:#9E4D1A"/>
		<stop  offset="7.881773e-002" style="stop-color:#955920"/>
		<stop  offset="1" style="stop-color:#D3882D"/>
	</linearGradient>
	<path fill="url(#SVGID_4_)" d="M22.3,2.6c0-0.6-3.5-1.1-7.8-1.1s-8,0.5-8,1.1s3.7,1.1,8,1.1S22.3,3.2,22.3,2.6z"/>
	<linearGradient id="SVGID_5_" gradientUnits="userSpaceOnUse" x1="10.0063" y1="18.0296" x2="10.0063" y2="4.7081">
		<stop  offset="0" style="stop-color:#FFFFFF;stop-opacity:0.7"/>
		<stop  offset="5.984778e-002" style="stop-color:#FFFBF6;stop-opacity:0.7306"/>
		<stop  offset="0.1323" style="stop-color:#FFF3E7;stop-opacity:0.7677"/>
		<stop  offset="0.2113" style="stop-color:#FFE8D0;stop-opacity:0.8082"/>
		<stop  offset="0.295" style="stop-color:#FED9B2;stop-opacity:0.851"/>
		<stop  offset="0.3825" style="stop-color:#FDC68D;stop-opacity:0.8958"/>
		<stop  offset="0.473" style="stop-color:#FBAF62;stop-opacity:0.9422"/>
		<stop  offset="0.5645" style="stop-color:#F8962B;stop-opacity:0.989"/>
		<stop  offset="0.586" style="stop-color:#F7901E"/>
		<stop  offset="0.7568" style="stop-color:#E08221"/>
		<stop  offset="0.9086" style="stop-color:#CC7322"/>
	</linearGradient>
	<path fill="url(#SVGID_5_)" d="M8.1,3.7C7.9,3.7,7.6,3.6,7.4,3.6c-0.1,4.6,0.5,7.9,0.5,7.9c1.1,5.6,4.8,7.1,4.8,7.1
		c-1.2-2.6-1.8-5.2-1.8-5.2c-0.7-5-0.2-8.6,0-9.3C10.3,4.1,9.9,4,9.5,4C9,3.9,8.5,3.8,8.1,3.7z"/>
	<linearGradient id="SVGID_6_" gradientUnits="userSpaceOnUse" x1="11.8118" y1="23.0934" x2="16.9718" y2="23.0934">
		<stop  offset="0" style="stop-color:#9D5121"/>
		<stop  offset="0.3215" style="stop-color:#D57A22"/>
		<stop  offset="0.5" style="stop-color:#F7901E"/>
		<stop  offset="0.6326" style="stop-color:#E08121"/>
		<stop  offset="0.8722" style="stop-color:#B56323"/>
		<stop  offset="1" style="stop-color:#9D5121"/>
	</linearGradient>
	<path fill="url(#SVGID_6_)" d="M16.3,21.9c0,0-0.3-0.4-0.4-0.8c0-0.1,0-0.3,0.1-0.4c0,0,0.1,0,0.1-0.1c-0.6,0.1-1.2,0.1-1.9,0.1
		c-0.7,0-1.4,0-2-0.1c0.1,0.1,0.2,0.1,0.2,0.1c0.2,0.6-0.3,1.2-0.3,1.2c-1.5,1.6-0.7,2.2,0.2,3c0.3,0.3,0.4,0.5,0.4,0.7
		c1,0.1,2.1,0.1,3.1,0c0-0.2,0.1-0.4,0.4-0.7C17,24.1,17.7,23.4,16.3,21.9z"/>
	<path opacity="0.23" fill="#9E4D1A" d="M14.3,20.8c0.1,0.1,0.1,0.1,0.2,0.2c0.1,0.1,0.2,0.1,0.3,0.2c0.1,0,0.3,0.1,0.4,0.1
		c0.2,0,0.5,0,0.7-0.1c0-0.1,0-0.3,0.1-0.4c0,0,0.1,0,0.1-0.1C15.5,20.6,14.9,20.7,14.3,20.8C14.3,20.7,14.3,20.7,14.3,20.8
		C14.3,20.7,14.3,20.7,14.3,20.8z"/>
	<linearGradient id="SVGID_7_" gradientUnits="userSpaceOnUse" x1="11.7436" y1="20.2363" x2="16.6479" y2="20.2363">
		<stop  offset="0" style="stop-color:#723B12"/>
		<stop  offset="5.828351e-002" style="stop-color:#824612"/>
		<stop  offset="0.1323" style="stop-color:#925010"/>
		<stop  offset="0.2171" style="stop-color:#9D570E"/>
		<stop  offset="0.321" style="stop-color:#A45B0D"/>
		<stop  offset="0.5" style="stop-color:#A65D0C"/>
		<stop  offset="0.696" style="stop-color:#A45B0D"/>
		<stop  offset="0.7959" style="stop-color:#9E570E"/>
		<stop  offset="0.8741" style="stop-color:#935110"/>
		<stop  offset="0.9407" style="stop-color:#844712"/>
		<stop  offset="1" style="stop-color:#723B12"/>
	</linearGradient>
	<path fill="url(#SVGID_7_)" d="M11.8,19.7c-0.1,0.4,0.4,0.8,0.7,0.9c1.2,0.2,2.3,0.2,3.6,0c0.3-0.1,0.8-0.5,0.6-0.9
		C15.4,20,12.8,19.9,11.8,19.7z"/>
	<linearGradient id="SVGID_8_" gradientUnits="userSpaceOnUse" x1="9.756" y1="29.4573" x2="18.7182" y2="29.4573">
		<stop  offset="0" style="stop-color:#9D5121"/>
		<stop  offset="0.2087" style="stop-color:#BA6623"/>
		<stop  offset="0.5" style="stop-color:#F7901E"/>
		<stop  offset="0.612" style="stop-color:#E88720"/>
		<stop  offset="0.773" style="stop-color:#CD7322"/>
		<stop  offset="0.9628" style="stop-color:#A55722"/>
		<stop  offset="1" style="stop-color:#9D5121"/>
	</linearGradient>
	<path fill="url(#SVGID_8_)" d="M20.9,29.9c-0.1-0.4-0.4-0.5-0.6-0.6c-1.1-0.7-1.4-0.8-2.4-1.1c0,0,0.1-0.7-0.2-0.9
		c-0.2-0.2-0.3-0.1-0.7-0.2c-0.1,0-0.6-0.2-1-0.6c-0.1-0.1-0.2-0.2-0.2-0.3c-0.4,0-0.9,0-1.3,0.1c-0.7,0-1.4,0-2-0.1
		c-0.3,0.6-1,0.9-1.2,0.9c-0.4,0.1-0.5,0.1-0.7,0.2c-0.3,0.3-0.2,0.9-0.2,0.9c-1,0.3-1.1,0.2-2.5,1.2c-0.4,0.3-0.5,0.3-0.5,0.6
		c0,0.2,0.1,0.6,0.1,0.8c0,0.2,0,0.3,0.1,0.5c2.9,2,10.1,2.2,13,0c0.2-0.2,0.2-0.3,0.2-0.6C21,30.5,21,30.3,20.9,29.9z"/>
	<path opacity="0.23" fill="#9E4D1A" d="M15.1,26.5c0.1,0,0.3,0.1,0.4,0.1c0.2,0,0.4,0,0.6-0.1c-0.1-0.1-0.2-0.2-0.2-0.3
		c-0.4,0-0.9,0-1.3,0.1c0.1,0.1,0.1,0.1,0.2,0.2C14.9,26.4,15,26.4,15.1,26.5z"/>
	<linearGradient id="SVGID_9_" gradientUnits="userSpaceOnUse" x1="12.5535" y1="25.8664" x2="15.8671" y2="25.8664">
		<stop  offset="0" style="stop-color:#723B12"/>
		<stop  offset="5.828351e-002" style="stop-color:#824612"/>
		<stop  offset="0.1323" style="stop-color:#925010"/>
		<stop  offset="0.2171" style="stop-color:#9D570E"/>
		<stop  offset="0.321" style="stop-color:#A45B0D"/>
		<stop  offset="0.5" style="stop-color:#A65D0C"/>
		<stop  offset="0.696" style="stop-color:#A45B0D"/>
		<stop  offset="0.7959" style="stop-color:#9E570E"/>
		<stop  offset="0.8741" style="stop-color:#935110"/>
		<stop  offset="0.9407" style="stop-color:#844712"/>
		<stop  offset="1" style="stop-color:#723B12"/>
	</linearGradient>
	<path fill="url(#SVGID_9_)" d="M15.9,26.1c0-0.1-0.1-0.1-0.1-0.2c0-0.1,0-0.2,0-0.3c-1,0.1-2.1,0.1-3.1,0c0,0.1,0,0.2,0,0.3
		c0,0.1,0,0.1-0.1,0.2C13.6,26.2,14.8,26.2,15.9,26.1z"/>
	<path fill="#FFC21F" d="M14.5,32.7"/>
	<linearGradient id="SVGID_10_" gradientUnits="userSpaceOnUse" x1="10.4674" y1="28.1015" x2="17.9503" y2="28.1015">
		<stop  offset="0" style="stop-color:#723B12"/>
		<stop  offset="5.828351e-002" style="stop-color:#824612"/>
		<stop  offset="0.1323" style="stop-color:#925010"/>
		<stop  offset="0.2171" style="stop-color:#9D570E"/>
		<stop  offset="0.321" style="stop-color:#A45B0D"/>
		<stop  offset="0.5" style="stop-color:#A65D0C"/>
		<stop  offset="0.696" style="stop-color:#A45B0D"/>
		<stop  offset="0.7959" style="stop-color:#9E570E"/>
		<stop  offset="0.8741" style="stop-color:#935110"/>
		<stop  offset="0.9407" style="stop-color:#844712"/>
		<stop  offset="1" style="stop-color:#723B12"/>
	</linearGradient>
	<path fill="url(#SVGID_10_)" d="M17.9,27.4c-1.2,0.3-4.7,0.7-7.3,0c0,0-0.1,0.3-0.1,0.8c1.6,0.7,5.8,0.8,7.4,0
		C18,27.7,17.9,27.5,17.9,27.4z"/>
	<path opacity="0.86" fill="#FFFFFF" d="M11.5,31.2c0,0,0.7-1.4,0.7-2.4c0,0-0.5,0-1.1-0.2c-0.1,0.1-1.2,1.6-2,2
		C9.2,30.6,10,31.1,11.5,31.2z"/>
	<path opacity="0.42" fill="#FFFFFF" d="M12.8,27.7c0.1-0.1,0.3-0.3,0.5-1.4h-0.5c0,0-0.6,1-1.1,1.2C11.8,27.7,12.6,27.8,12.8,27.7z
		"/>
	<linearGradient id="SVGID_11_" gradientUnits="userSpaceOnUse" x1="7.4438" y1="31.3914" x2="21.0484" y2="31.3914">
		<stop  offset="0" style="stop-color:#723B12"/>
		<stop  offset="5.828351e-002" style="stop-color:#824612"/>
		<stop  offset="0.1323" style="stop-color:#925010"/>
		<stop  offset="0.2171" style="stop-color:#9D570E"/>
		<stop  offset="0.321" style="stop-color:#A45B0D"/>
		<stop  offset="0.5" style="stop-color:#A65D0C"/>
		<stop  offset="0.696" style="stop-color:#A45B0D"/>
		<stop  offset="0.7959" style="stop-color:#9E570E"/>
		<stop  offset="0.8741" style="stop-color:#935110"/>
		<stop  offset="0.9407" style="stop-color:#844712"/>
		<stop  offset="1" style="stop-color:#723B12"/>
	</linearGradient>
	<path fill="url(#SVGID_11_)" d="M20.9,29.9c-4.1,1.7-8.9,2-13.5,0c0,0-0.2,0.9,0.2,1.3c3.1,2.1,10.1,2.2,13.1,0
		C21.2,30.9,21,30.3,20.9,29.9z"/>
	<path opacity="0.86" fill="#FFFFFF" d="M13.5,24.8v-2.4c0,0,0-0.4-0.6-0.4c0,0-0.6,0.1-0.5,1.2C12.4,23.2,12.6,24.4,13.5,24.8z"/>
	<path opacity="0.23" fill="#9E4D1A" d="M5.5,2.9c0,0,0.3,0.1,0.7,0.2c0.5,0.1,1.1,0.3,1.9,0.5C8.6,3.7,9,3.8,9.5,3.9
		c0.5,0,1,0.1,1.5,0.1c1,0.1,2.1,0.1,3.3,0.1c1.1,0,2.2,0,3.3,0C18,4.1,18.5,4,19,4c0.5,0,0.9-0.1,1.3-0.2c0.2,0,0.4-0.1,0.6-0.1
		c0.1,0,0.2,0,0.3-0.1c0.1,0,0.2,0,0.3-0.1c0.3-0.1,0.6-0.2,0.8-0.3c0.2-0.1,0.4-0.2,0.5-0.2C22.9,3,22.9,3,22.9,3s0,0.1-0.2,0.1
		c-0.1,0.1-0.3,0.2-0.5,0.3c-0.2,0.1-0.5,0.2-0.8,0.3c-0.3,0.1-0.7,0.2-1.1,0.2c-0.8,0.1-1.8,0.3-2.8,0.3c-1,0.1-2.2,0.1-3.3,0.1
		c-1.1,0-2.2-0.1-3.3-0.2c-0.5,0-1-0.1-1.5-0.1C9,3.9,8.5,3.8,8.1,3.7C7.3,3.6,6.7,3.3,6.2,3.2C5.7,3,5.5,2.9,5.5,2.9z"/>
</g>
</svg>
