<?xml version="1.0" encoding="utf-8"?>
<!-- Generator: Adobe Illustrator 18.1.1, SVG Export Plug-In . SVG Version: 6.00 Build 0)  -->
<svg version="1.1" id="Layer_1" xmlns="http://www.w3.org/2000/svg" xmlns:xlink="http://www.w3.org/1999/xlink" x="0px" y="0px"
	 viewBox="0 0 28.4 34.1" enable-background="new 0 0 28.4 34.1" xml:space="preserve">
<g>
	<linearGradient id="SVGID_1_" gradientUnits="userSpaceOnUse" x1="22.9589" y1="13.6697" x2="22.9589" y2="6.1614">
		<stop  offset="0" style="stop-color:#6D6E71"/>
		<stop  offset="7.987142e-002" style="stop-color:#727476"/>
		<stop  offset="0.3048" style="stop-color:#7D7E81"/>
		<stop  offset="0.5" style="stop-color:#808285"/>
	</linearGradient>
	<path fill="url(#SVGID_1_)" d="M19.7,18.8C19.7,18.8,19.7,18.7,19.7,18.8c-0.1-0.1-0.1-0.1-0.2-0.1c-0.1-0.1-0.3-0.3-0.3-0.6
		c0-0.3,0.1-0.7,0.3-1c0.1-0.2,0.2-0.4,0.4-0.5l0.1-0.1l0,0l0,0l0,0l0,0c0,0,0.1-0.1,0.1-0.1c0.1-0.1,0.2-0.2,0.3-0.3
		c0.7-0.7,1.5-1.5,2.2-2.5c0.4-0.5,0.8-0.9,1.2-1.5c0.4-0.5,0.7-1,1-1.6c0.3-0.5,0.6-1.1,0.7-1.7c0.2-0.6,0.3-1.2,0.3-1.7
		c0-0.6-0.1-1.1-0.3-1.5c-0.1-0.2-0.3-0.4-0.4-0.5c-0.2-0.1-0.4-0.2-0.5-0.3c-0.4-0.1-0.8,0.1-1.1,0.3c-0.2,0.1-0.3,0.2-0.4,0.3
		c-0.1,0.1-0.3,0.2-0.4,0.3c-0.3,0.1-0.5,0.1-0.7,0c-0.1,0-0.1,0-0.2-0.1c0,0-0.1,0-0.1,0s0,0,0.1,0c0,0,0.1,0,0.2,0
		c0.1,0,0.4,0,0.6-0.2c0.1-0.1,0.2-0.2,0.3-0.3c0.1-0.1,0.2-0.3,0.4-0.4c0.2-0.2,0.3-0.3,0.6-0.4c0.2-0.1,0.5-0.2,0.8-0.2
		c0.3,0,0.6,0.1,0.9,0.3c0.3,0.2,0.5,0.4,0.7,0.7c0.3,0.5,0.5,1.2,0.5,1.9c0,0.3,0,0.7,0,1c0,0.3-0.1,0.7-0.2,1
		c-0.2,0.7-0.5,1.3-0.8,1.9c-0.3,0.6-0.7,1.1-1.1,1.7c-0.4,0.5-0.8,1-1.3,1.5c-0.9,0.9-1.7,1.7-2.5,2.3c-0.1,0.1-0.2,0.2-0.3,0.2
		c0,0-0.1,0.1-0.1,0.1c0,0-0.1,0.1-0.1,0.1c-0.2,0.1-0.3,0.3-0.4,0.4c-0.2,0.3-0.4,0.6-0.4,0.8c0,0.3,0.1,0.5,0.1,0.6
		C19.6,18.7,19.7,18.8,19.7,18.8z"/>
	<linearGradient id="SVGID_2_" gradientUnits="userSpaceOnUse" x1="5.441" y1="13.4364" x2="5.441" y2="5.9281">
		<stop  offset="0" style="stop-color:#6D6E71"/>
		<stop  offset="7.987142e-002" style="stop-color:#727476"/>
		<stop  offset="0.3048" style="stop-color:#7D7E81"/>
		<stop  offset="0.5" style="stop-color:#808285"/>
	</linearGradient>
	<path fill="url(#SVGID_2_)" d="M8.7,18.8c0,0,0.1-0.1,0.1-0.2C9,18.4,9,18.2,9,18c0-0.3-0.2-0.6-0.4-0.8c-0.1-0.1-0.3-0.3-0.4-0.4
		c0,0-0.1-0.1-0.1-0.1c0,0-0.1-0.1-0.1-0.1c-0.1-0.1-0.2-0.1-0.3-0.2C6.8,15.6,6,14.9,5.1,14c-0.4-0.5-0.9-0.9-1.3-1.5
		c-0.4-0.5-0.8-1.1-1.1-1.7c-0.3-0.6-0.6-1.2-0.8-1.9c-0.1-0.3-0.1-0.7-0.2-1c0-0.3-0.1-0.7,0-1c0-0.7,0.2-1.3,0.5-1.9
		c0.2-0.3,0.4-0.5,0.7-0.7c0.3-0.2,0.6-0.3,0.9-0.3c0.3,0,0.6,0.1,0.8,0.2C4.8,4.4,5,4.5,5.1,4.6C5.3,4.8,5.4,4.9,5.5,5
		c0.1,0.1,0.2,0.2,0.3,0.3c0.2,0.1,0.5,0.2,0.6,0.2c0.1,0,0.1,0,0.2,0c0,0,0.1,0,0.1,0s0,0-0.1,0c0,0-0.1,0-0.2,0.1
		c-0.1,0-0.4,0.1-0.7,0C5.6,5.5,5.5,5.4,5.3,5.3C5.2,5.1,5.1,5,4.9,4.9C4.6,4.7,4.2,4.5,3.8,4.6c-0.2,0-0.4,0.1-0.5,0.3
		C3.1,5,2.9,5.2,2.8,5.4c-0.2,0.4-0.3,1-0.3,1.5c0,0.6,0.1,1.2,0.3,1.7C3,9.3,3.2,9.8,3.5,10.4c0.3,0.5,0.7,1.1,1,1.6
		c0.4,0.5,0.8,1,1.2,1.5c0.8,0.9,1.6,1.8,2.2,2.5C8.1,16,8.1,16,8.2,16.1c0,0,0.1,0.1,0.1,0.1l0,0l0,0l0,0l0,0l0.1,0.1
		c0.2,0.2,0.3,0.4,0.4,0.5c0.2,0.4,0.3,0.7,0.3,1c0,0.3-0.2,0.5-0.3,0.6C8.9,18.7,8.8,18.7,8.7,18.8C8.7,18.7,8.7,18.8,8.7,18.8z"/>
	<linearGradient id="SVGID_3_" gradientUnits="userSpaceOnUse" x1="6.4507" y1="10.6465" x2="21.7917" y2="10.6465">
		<stop  offset="0" style="stop-color:#6D6E71"/>
		<stop  offset="0.1106" style="stop-color:#727476"/>
		<stop  offset="0.4219" style="stop-color:#7D7E81"/>
		<stop  offset="0.6921" style="stop-color:#808285"/>
		<stop  offset="0.8175" style="stop-color:#7B7D80"/>
		<stop  offset="0.9921" style="stop-color:#6E6F72"/>
		<stop  offset="1" style="stop-color:#6D6E71"/>
	</linearGradient>
	<path fill="url(#SVGID_3_)" d="M19.2,17.4c0,0,2.6-3.4,3-7.7c0,0,0.5-2,0.6-6.6c0-0.4,0-0.5-0.2-0.6C21.9,1.6,18,1.3,14,1.3
		c-2.7,0.1-6.4,0.2-8.3,1.1C5.5,2.6,5.5,2.7,5.5,3.1c0.1,4.6,0.6,6.6,0.6,6.6c0.4,4.4,3,7.7,3,7.7c1,1.4,2.2,2.2,2.6,2.4
		c1.4,0.3,3.3,0.3,4.7,0.1C16.5,19.8,18,19.1,19.2,17.4z"/>
	<linearGradient id="SVGID_4_" gradientUnits="userSpaceOnUse" x1="14.3025" y1="1.1882" x2="14.3025" y2="3.613">
		<stop  offset="9.852217e-003" style="stop-color:#414042"/>
		<stop  offset="7.881773e-002" style="stop-color:#58595B"/>
		<stop  offset="1" style="stop-color:#808285"/>
	</linearGradient>
	<path fill="url(#SVGID_4_)" d="M22.2,2.6c0-0.6-3.5-1.1-7.8-1.1s-8,0.5-8,1.1s3.7,1.1,8,1.1S22.2,3.3,22.2,2.6z"/>
	<linearGradient id="SVGID_5_" gradientUnits="userSpaceOnUse" x1="9.9713" y1="4.4915" x2="9.9713" y2="17.8267">
		<stop  offset="4.903940e-002" style="stop-color:#76787B"/>
		<stop  offset="0.2232" style="stop-color:#9C9EA1"/>
		<stop  offset="0.3951" style="stop-color:#BEC0C2"/>
		<stop  offset="0.5616" style="stop-color:#D9DADB"/>
		<stop  offset="0.721" style="stop-color:#ECEDED"/>
		<stop  offset="0.8705" style="stop-color:#F8F9F9"/>
		<stop  offset="1" style="stop-color:#FFFFFF"/>
	</linearGradient>
	<path fill="url(#SVGID_5_)" d="M8.1,3.8C7.8,3.8,7.6,3.7,7.4,3.6c-0.1,4.7,0.5,8,0.5,8c1.1,5.6,4.7,7.1,4.7,7.1
		c-1.2-2.6-1.8-5.2-1.8-5.2c-0.7-5.2-0.2-8.8,0-9.4c-0.4,0-0.9-0.1-1.3-0.1C9,4,8.5,3.9,8.1,3.8z"/>
	<linearGradient id="SVGID_6_" gradientUnits="userSpaceOnUse" x1="11.7726" y1="23.1169" x2="16.9202" y2="23.1169">
		<stop  offset="0" style="stop-color:#6D6E71"/>
		<stop  offset="7.987142e-002" style="stop-color:#727476"/>
		<stop  offset="0.3048" style="stop-color:#7D7E81"/>
		<stop  offset="0.5" style="stop-color:#808285"/>
		<stop  offset="0.7036" style="stop-color:#7B7D80"/>
		<stop  offset="0.9872" style="stop-color:#6E6F72"/>
		<stop  offset="1" style="stop-color:#6D6E71"/>
	</linearGradient>
	<path fill="url(#SVGID_6_)" d="M16.2,21.9c0,0-0.3-0.4-0.4-0.8c0-0.1,0-0.3,0.1-0.4c0,0,0.1,0,0.1-0.1c-0.6,0.1-1.2,0.1-1.9,0.1
		c-0.7,0-1.4,0-2-0.1c0.1,0.1,0.2,0.1,0.2,0.1c0.2,0.6-0.3,1.2-0.3,1.2c-1.5,1.6-0.7,2.2,0.2,3c0.3,0.3,0.4,0.5,0.4,0.7
		c1,0.1,2.1,0.1,3.1,0c0-0.2,0.1-0.4,0.4-0.7C16.9,24.1,17.7,23.5,16.2,21.9z"/>
	<path opacity="0.23" fill="#565656" d="M14.3,20.8c0.1,0.1,0.1,0.1,0.2,0.2c0.1,0.1,0.2,0.1,0.3,0.2c0.1,0,0.3,0.1,0.4,0.1
		c0.2,0,0.5,0,0.7-0.1c0-0.1,0-0.3,0.1-0.4c0,0,0.1,0,0.1-0.1C15.5,20.7,14.8,20.7,14.3,20.8C14.2,20.7,14.2,20.7,14.3,20.8
		C14.2,20.7,14.3,20.8,14.3,20.8z"/>
	<linearGradient id="SVGID_7_" gradientUnits="userSpaceOnUse" x1="11.7045" y1="20.2666" x2="16.5971" y2="20.2666">
		<stop  offset="0" style="stop-color:#A7A9AC"/>
		<stop  offset="0.6601" style="stop-color:#6D6E71"/>
		<stop  offset="1" style="stop-color:#58595B"/>
	</linearGradient>
	<path fill="url(#SVGID_7_)" d="M11.7,19.8c-0.1,0.4,0.4,0.8,0.7,0.9c1.2,0.2,2.3,0.2,3.6,0c0.3-0.1,0.8-0.5,0.6-0.9
		C15.4,20,12.8,19.9,11.7,19.8z"/>
	<linearGradient id="SVGID_8_" gradientUnits="userSpaceOnUse" x1="9.7217" y1="29.4654" x2="18.6624" y2="29.4654">
		<stop  offset="0" style="stop-color:#6D6E71"/>
		<stop  offset="7.987142e-002" style="stop-color:#727476"/>
		<stop  offset="0.3048" style="stop-color:#7D7E81"/>
		<stop  offset="0.5" style="stop-color:#808285"/>
		<stop  offset="0.7036" style="stop-color:#7B7D80"/>
		<stop  offset="0.9872" style="stop-color:#6E6F72"/>
		<stop  offset="1" style="stop-color:#6D6E71"/>
	</linearGradient>
	<path fill="url(#SVGID_8_)" d="M20.9,29.9c-0.1-0.4-0.4-0.5-0.6-0.6c-1.1-0.7-1.4-0.8-2.4-1.1c0,0,0.1-0.7-0.2-0.9
		c-0.2-0.2-0.3-0.1-0.7-0.2c-0.1,0-0.6-0.2-1-0.6c-0.1-0.1-0.2-0.2-0.2-0.3c-0.4,0-0.9,0-1.3,0.1c-0.7,0-1.4,0-2-0.1
		c-0.3,0.6-1,0.9-1.2,0.9c-0.4,0.1-0.5,0.1-0.7,0.2c-0.3,0.3-0.2,0.9-0.2,0.9c-1,0.3-1.1,0.2-2.5,1.2c-0.4,0.3-0.5,0.3-0.5,0.6
		c0,0.2,0.1,0.6,0.1,0.8c0,0.2,0,0.3,0.1,0.5c2.9,2,10.1,2.2,13,0c0.2-0.2,0.2-0.3,0.2-0.6C20.9,30.5,20.9,30.3,20.9,29.9z"/>
	<path opacity="0.23" fill="#565656" d="M15.1,26.5c0.1,0,0.3,0.1,0.4,0.1c0.2,0,0.4,0,0.6-0.1c-0.1-0.1-0.2-0.2-0.2-0.3
		c-0.4,0-0.9,0-1.3,0.1c0.1,0.1,0.1,0.1,0.2,0.2C14.8,26.4,14.9,26.4,15.1,26.5z"/>
	<linearGradient id="SVGID_9_" gradientUnits="userSpaceOnUse" x1="12.5125" y1="25.8832" x2="15.8182" y2="25.8832">
		<stop  offset="0" style="stop-color:#A7A9AC"/>
		<stop  offset="0.6601" style="stop-color:#6D6E71"/>
		<stop  offset="1" style="stop-color:#58595B"/>
	</linearGradient>
	<path fill="url(#SVGID_9_)" d="M15.8,26.1c0-0.1-0.1-0.1-0.1-0.2c0-0.1,0-0.2,0-0.3c-1,0.1-2.1,0.1-3.1,0c0,0.1,0,0.2,0,0.3
		c0,0.1,0,0.1-0.1,0.2C13.6,26.2,14.8,26.2,15.8,26.1z"/>
	<path fill="#FFC21F" d="M14.4,32.7"/>
	<linearGradient id="SVGID_10_" gradientUnits="userSpaceOnUse" x1="10.4314" y1="28.1129" x2="17.8964" y2="28.1129">
		<stop  offset="0" style="stop-color:#58595B"/>
		<stop  offset="1.304129e-002" style="stop-color:#5D5E61"/>
		<stop  offset="7.715049e-002" style="stop-color:#727376"/>
		<stop  offset="0.1483" style="stop-color:#818385"/>
		<stop  offset="0.2294" style="stop-color:#8B8D90"/>
		<stop  offset="0.3289" style="stop-color:#919396"/>
		<stop  offset="0.5" style="stop-color:#939598"/>
		<stop  offset="0.6884" style="stop-color:#929496"/>
		<stop  offset="0.7844" style="stop-color:#8C8E90"/>
		<stop  offset="0.8596" style="stop-color:#828486"/>
		<stop  offset="0.9239" style="stop-color:#747578"/>
		<stop  offset="0.9808" style="stop-color:#616264"/>
		<stop  offset="1" style="stop-color:#58595B"/>
	</linearGradient>
	<path fill="url(#SVGID_10_)" d="M17.8,27.4c-1.2,0.3-4.7,0.7-7.3,0c0,0-0.1,0.3-0.1,0.8c1.6,0.7,5.8,0.8,7.4,0
		C17.9,27.7,17.8,27.5,17.8,27.4z"/>
	<path opacity="0.86" fill="#FFFFFF" d="M11.5,31.2c0,0,0.7-1.4,0.7-2.4c0,0-0.5,0-1.1-0.2c-0.1,0.1-1.2,1.6-2,2
		C9.1,30.6,10,31.1,11.5,31.2z"/>
	<path opacity="0.42" fill="#FFFFFF" d="M12.8,27.7c0.1-0.1,0.3-0.3,0.5-1.4h-0.5c0,0-0.6,1-1.1,1.2C11.7,27.7,12.5,27.8,12.8,27.7z
		"/>
	<linearGradient id="SVGID_11_" gradientUnits="userSpaceOnUse" x1="7.4151" y1="31.3949" x2="20.987" y2="31.3949">
		<stop  offset="0" style="stop-color:#58595B"/>
		<stop  offset="1.304129e-002" style="stop-color:#5D5E61"/>
		<stop  offset="7.715049e-002" style="stop-color:#727376"/>
		<stop  offset="0.1483" style="stop-color:#818385"/>
		<stop  offset="0.2294" style="stop-color:#8B8D90"/>
		<stop  offset="0.3289" style="stop-color:#919396"/>
		<stop  offset="0.5" style="stop-color:#939598"/>
		<stop  offset="0.6884" style="stop-color:#929496"/>
		<stop  offset="0.7844" style="stop-color:#8C8E90"/>
		<stop  offset="0.8596" style="stop-color:#828486"/>
		<stop  offset="0.9239" style="stop-color:#747578"/>
		<stop  offset="0.9808" style="stop-color:#616264"/>
		<stop  offset="1" style="stop-color:#58595B"/>
	</linearGradient>
	<path fill="url(#SVGID_11_)" d="M20.9,29.9c-4.1,1.7-8.8,2-13.4,0c0,0-0.2,0.9,0.2,1.3c3.1,2.1,10.1,2.2,13,0
		C21.1,30.9,21,30.3,20.9,29.9z"/>
	<path opacity="0.86" fill="#FFFFFF" d="M13.4,24.8v-2.4c0,0,0-0.4-0.6-0.3c0,0-0.6,0.1-0.5,1.2C12.3,23.2,12.6,24.5,13.4,24.8z"/>
	<path opacity="0.23" fill="#565656" d="M5.5,3c0,0,0.3,0.1,0.7,0.2c0.5,0.1,1.1,0.3,1.9,0.5C8.5,3.8,9,3.9,9.4,3.9
		c0.5,0,1,0.1,1.5,0.1c1,0.1,2.1,0.1,3.2,0.1c0.3,0,0.6,0,0.8,0c0.3,0,0.5,0,0.8,0c0.5,0,1.1,0,1.6,0c0.5,0,1-0.1,1.5-0.1
		c0.5,0,0.9-0.1,1.3-0.2c0.2,0,0.4-0.1,0.6-0.1c0.1,0,0.2,0,0.3,0c0.1,0,0.2,0,0.3-0.1c0.3-0.1,0.6-0.2,0.8-0.3
		c0.2-0.1,0.4-0.2,0.5-0.2c0.1,0,0.1-0.1,0.1-0.1c0,0,0,0,0,0s0,0,0,0c0,0-0.1,0.1-0.1,0.1c-0.1,0.1-0.3,0.2-0.5,0.3
		c-0.2,0.1-0.5,0.2-0.8,0.3c-0.1,0-0.2,0-0.3,0.1c-0.1,0-0.2,0-0.3,0.1c-0.2,0-0.4,0.1-0.6,0.1c-0.4,0.1-0.9,0.1-1.3,0.2
		c-0.5,0.1-1,0.1-1.5,0.1c-0.5,0-1.1,0-1.6,0.1c-0.3,0-0.5,0-0.8,0c-0.3,0-0.6,0-0.8,0c-1.1,0-2.2-0.1-3.3-0.2c-0.5,0-1-0.1-1.5-0.1
		C9,4,8.5,3.9,8.1,3.8C7.3,3.6,6.6,3.4,6.2,3.3C5.7,3.1,5.5,3,5.5,3z"/>
</g>
</svg>
