<?xml version="1.0" encoding="utf-8"?>
<!-- Generator: Adobe Illustrator 18.1.1, SVG Export Plug-In . SVG Version: 6.00 Build 0)  -->
<svg version="1.1" id="Layer_1" xmlns="http://www.w3.org/2000/svg" xmlns:xlink="http://www.w3.org/1999/xlink" x="0px" y="0px"
	 viewBox="0 0 28.4 28.4" enable-background="new 0 0 28.4 28.4" xml:space="preserve">
<g>
	<g>
		<path fill="#152447" d="M22.7,0.7h-7.6H13H5.4C4,0.8,4.6,2.4,4.6,2.4l1.6,3.2h7H15h7l1.6-3.2C23.6,2.4,24.1,0.8,22.7,0.7z"/>
		<path fill="#2D2865" d="M26.9,4.9c0,0,0-0.3-0.4-0.7L23.3,1l-8.7,10.8c0,0-0.3,0.5-0.5,0.5h0c-0.2,0-0.5-0.5-0.5-0.5L4.8,1
			L1.6,4.2C1.3,4.6,1.2,4.9,1.2,4.9c-0.2,0.5,0.2,1,0.2,1l9.3,10.6H14h0.2h3.2l9.3-10.6C26.6,5.9,27.1,5.5,26.9,4.9z"/>
		<linearGradient id="SVGID_1_" gradientUnits="userSpaceOnUse" x1="20.6479" y1="10.1071" x2="22.1585" y2="11.4422">
			<stop  offset="0" style="stop-color:#2E368F;stop-opacity:0.45"/>
			<stop  offset="0.1096" style="stop-color:#2D3181;stop-opacity:0.5108"/>
			<stop  offset="0.314" style="stop-color:#2B2A6F;stop-opacity:0.6242"/>
			<stop  offset="0.4945" style="stop-color:#292664;stop-opacity:0.7244"/>
			<stop  offset="0.6308" style="stop-color:#282560;stop-opacity:0.8"/>
		</linearGradient>
		<path fill="url(#SVGID_1_)" d="M26.2,3.9c0,0,0,1,0,1.1c0,0.2-0.1,0.3-0.2,0.5l-8.8,10c0,0-0.6,0.6-1.2,0.6v1h1.2l9.7-11
			c0,0,0.7-0.7-0.1-1.6C26.3,3.9,26.2,3.9,26.2,3.9z"/>
		<path fill="#FFFFFF" d="M25.4,3.1L25,2.7l-9.5,11.7c0,0-1.2,1.5-1.5,1.5c-0.6-0.3-1.5-1.4-1.5-1.4L3.1,2.7L2.5,3.3
			c0.8,1,10.3,12.6,10.3,12.6H14h1C14.9,15.9,24.6,4.3,25.4,3.1z"/>
	</g>
	<g>
		<path fill="#9AA2A3" d="M18.4,15.9h-3.8h-1.4H9.4l0.9,1.3H11l2.4,2.7l0.5-0.4l0.5,0.4l2.4-2.7h0.5L18.4,15.9z M14.4,18.7L14,18.4
			l-0.4,0.3l-1.4-1.5h1h1.4h1.2L14.4,18.7z"/>
		<linearGradient id="SVGID_2_" gradientUnits="userSpaceOnUse" x1="13.899" y1="17.1057" x2="13.899" y2="16.8312">
			<stop  offset="0" style="stop-color:#F2F2F2;stop-opacity:0.5"/>
			<stop  offset="0.2403" style="stop-color:#C2C1C2;stop-opacity:0.4855"/>
			<stop  offset="0.5023" style="stop-color:#9C9C9E;stop-opacity:0.4698"/>
			<stop  offset="0.7082" style="stop-color:#88888B;stop-opacity:0.4574"/>
			<stop  offset="0.8307" style="stop-color:#808184;stop-opacity:0.45"/>
		</linearGradient>
		<polygon fill="url(#SVGID_2_)" points="17.6,17.1 17.8,16.8 10,16.8 10.2,17.1 		"/>
		<circle fill="#9AA2A3" cx="14" cy="22.8" r="4.6"/>
		<circle fill="#8C9192" cx="14" cy="22.8" r="3.4"/>
		
			<radialGradient id="SVGID_3_" cx="11.4332" cy="20.7173" r="3.1483" gradientTransform="matrix(1 0 0 1.0105 0 0.3179)" gradientUnits="userSpaceOnUse">
			<stop  offset="0" style="stop-color:#808184;stop-opacity:0.7"/>
			<stop  offset="0.5134" style="stop-color:#767779;stop-opacity:0.8854"/>
			<stop  offset="0.8307" style="stop-color:#6E6F71"/>
		</radialGradient>
		<path fill="url(#SVGID_3_)" d="M10.9,20.9c-1,1.6-0.4,3.3,0.8,4.4c-1.2-1.3-1-3-0.3-4.1c0.7-1.2,2.2-2.1,3.8-1.6
			c-0.5-0.2-0.9-0.3-1.4-0.3C12.6,19.3,11.6,19.8,10.9,20.9z"/>
	</g>
</g>
</svg>
