<?xml version="1.0" encoding="utf-8"?>
<!-- Generator: Adobe Illustrator 18.1.1, SVG Export Plug-In . SVG Version: 6.00 Build 0)  -->
<svg version="1.1" id="Layer_1" xmlns="http://www.w3.org/2000/svg" xmlns:xlink="http://www.w3.org/1999/xlink" x="0px" y="0px"
	 viewBox="0 0 28.4 28.4" enable-background="new 0 0 28.4 28.4" xml:space="preserve">
<g>
	<g>
		<path fill="#152447" d="M22.7,1h-7.5h-2.1H5.6C4.2,1.1,4.7,2.6,4.7,2.6l1.6,3.2h6.9H15H22l1.6-3.2C23.5,2.6,24.1,1.1,22.7,1z"/>
		<path fill="#2D2865" d="M26.8,5.1c0,0,0-0.3-0.4-0.7l-3.1-3.2l-8.7,10.7c0,0-0.3,0.5-0.5,0.5h0c-0.2,0-0.5-0.5-0.5-0.5L4.9,1.2
			L1.8,4.4C1.4,4.8,1.4,5.1,1.4,5.1c-0.2,0.5,0.2,1,0.2,1l9.2,10.5H14h0.2h3.2l9.2-10.5C26.6,6.1,27,5.8,26.8,5.1z"/>
		<linearGradient id="SVGID_1_" gradientUnits="userSpaceOnUse" x1="20.6191" y1="10.2799" x2="22.1145" y2="11.6016">
			<stop  offset="0" style="stop-color:#2E368F;stop-opacity:0.45"/>
			<stop  offset="0.1096" style="stop-color:#2D3181;stop-opacity:0.5108"/>
			<stop  offset="0.314" style="stop-color:#2B2A6F;stop-opacity:0.6242"/>
			<stop  offset="0.4945" style="stop-color:#292664;stop-opacity:0.7244"/>
			<stop  offset="0.6308" style="stop-color:#282560;stop-opacity:0.8"/>
		</linearGradient>
		<path fill="url(#SVGID_1_)" d="M26.1,4.1c0,0,0,1,0,1.1S26,5.5,25.9,5.7l-8.7,9.9c0,0-0.6,0.6-1.1,0.6v1h1.2l9.6-10.9
			c0,0,0.7-0.7-0.1-1.6C26.2,4.2,26.1,4.1,26.1,4.1z"/>
		<path fill="#FFFFFF" d="M25.3,3.3l-0.4-0.4l-9.4,11.6c0,0-1.2,1.5-1.5,1.4c-0.6-0.3-1.5-1.4-1.5-1.4L3.2,2.9L2.7,3.5
			C3.5,4.5,12.9,16,12.9,16H14h1C15,16,24.6,4.6,25.3,3.3z"/>
	</g>
	<g>
		<path fill="#C26328" d="M18.3,16h-3.7h-1.4H9.5l0.9,1.3h0.7l2.4,2.6l0.5-0.4l0.5,0.4l2.4-2.6h0.5L18.3,16z M14.5,18.8L14,18.5
			l-0.4,0.3l-1.3-1.5h1h1.4h1.2L14.5,18.8z"/>
		<linearGradient id="SVGID_2_" gradientUnits="userSpaceOnUse" x1="13.9378" y1="17.2083" x2="13.9378" y2="16.9366">
			<stop  offset="0" style="stop-color:#A87D50;stop-opacity:0.5"/>
			<stop  offset="7.497849e-002" style="stop-color:#A3774B;stop-opacity:0.4774"/>
			<stop  offset="0.575" style="stop-color:#825832;stop-opacity:0.3269"/>
			<stop  offset="0.8307" style="stop-color:#754D29;stop-opacity:0.25"/>
		</linearGradient>
		<polygon fill="url(#SVGID_2_)" points="17.6,17.2 17.8,16.9 10.1,16.9 10.3,17.2 		"/>
		<circle fill="#C26328" cx="14" cy="22.8" r="4.5"/>
		<circle fill="#A65225" cx="14" cy="22.8" r="3.4"/>
		
			<radialGradient id="SVGID_3_" cx="11.4968" cy="20.7777" r="3.1167" gradientTransform="matrix(1 0 0 1.0105 0 0.3179)" gradientUnits="userSpaceOnUse">
			<stop  offset="0" style="stop-color:#F15B2A;stop-opacity:0.2"/>
			<stop  offset="0.154" style="stop-color:#DC5A2B;stop-opacity:0.2742"/>
			<stop  offset="0.4328" style="stop-color:#B4582C;stop-opacity:0.4084"/>
			<stop  offset="0.8021" style="stop-color:#7A4E29;stop-opacity:0.5862"/>
			<stop  offset="0.8307" style="stop-color:#754D29;stop-opacity:0.6"/>
		</radialGradient>
		<path fill="url(#SVGID_3_)" d="M11,20.9c-1,1.6-0.4,3.3,0.7,4.3c-1.2-1.2-1-2.9-0.3-4.1c0.7-1.2,2.1-2.1,3.8-1.6
			c-0.5-0.2-0.9-0.3-1.4-0.3C12.7,19.4,11.6,19.8,11,20.9z"/>
	</g>
</g>
</svg>
